<svg width="14" height="17" viewBox="0 0 14 17" fill="none" xmlns="http://www.w3.org/2000/svg">
<path d="M7.00065 8.4035C9.26643 8.4035 11.1032 6.57609 11.1032 4.32187C11.1032 2.06764 9.26643 0.240234 7.00065 0.240234C4.73487 0.240234 2.89809 2.06764 2.89809 4.32187C2.89809 6.57609 4.73487 8.4035 7.00065 8.4035Z" fill="#A2AEBD"/>
<path d="M9.1374 10.1043H4.8639C2.38527 10.1043 0.333984 12.1451 0.333984 14.6111C0.333984 15.2063 0.590395 15.7165 1.10322 15.9716C1.87245 16.3968 3.58185 16.907 7.00065 16.907C10.4195 16.907 12.1289 16.3968 12.8981 15.9716C13.3254 15.7165 13.6673 15.2063 13.6673 14.6111C13.6673 12.06 11.616 10.1043 9.1374 10.1043Z" fill="#A2AEBD"/>
</svg>
