<svg width="16" height="18" viewBox="0 0 16 18" fill="none" xmlns="http://www.w3.org/2000/svg">
<path fill-rule="evenodd" clip-rule="evenodd" d="M7.77276 17.2607C7.86505 17.3089 7.96824 17.3335 8.07143 17.3326C8.17462 17.3318 8.27697 17.3065 8.37009 17.2575L11.3433 15.6681C12.1865 15.2186 12.8467 14.7161 13.3618 14.131C14.4818 12.8562 15.0934 11.2292 15.0825 9.55155L15.0473 4.01767C15.0439 3.38028 14.6253 2.81152 14.0061 2.60478L8.47496 0.748986C8.1419 0.636216 7.77696 0.638668 7.44977 0.754706L1.93955 2.67669C1.32376 2.89161 0.91268 3.46444 0.916036 4.10265L0.951272 9.63245C0.962178 11.3125 1.59475 12.9322 2.7332 14.1939C3.25335 14.7708 3.91947 15.266 4.77184 15.7081L7.77276 17.2607ZM6.98566 10.7568C7.10982 10.8761 7.2709 10.9349 7.43198 10.9333C7.59305 10.9325 7.75329 10.872 7.87578 10.7511L11.125 7.54776C11.3692 7.3067 11.3666 6.91936 11.12 6.68156C10.8725 6.44377 10.474 6.4454 10.2299 6.68647L7.42275 9.45341L6.27339 8.34859C6.0259 8.11079 5.62824 8.11325 5.38326 8.35431C5.13913 8.59538 5.14165 8.98271 5.38914 9.22051L6.98566 10.7568Z" fill="#A2AEBD"/>
</svg>
