<svg width="18" height="18" viewBox="0 0 18 18" fill="none" xmlns="http://www.w3.org/2000/svg">
<path fill-rule="evenodd" clip-rule="evenodd" d="M5.39102 0.666016H12.616C15.441 0.666016 17.3327 2.64935 17.3327 5.59935V12.4085C17.3327 15.3502 15.441 17.3327 12.616 17.3327H5.39102C2.56602 17.3327 0.666016 15.3502 0.666016 12.4085V5.59935C0.666016 2.64935 2.56602 0.666016 5.39102 0.666016ZM11.5077 11.4993C11.791 11.2168 11.791 10.7585 11.5077 10.4752L10.0243 8.99185L11.5077 7.50768C11.791 7.22518 11.791 6.75852 11.5077 6.47518C11.2243 6.19102 10.766 6.19102 10.4743 6.47518L8.99935 7.95768L7.51602 6.47518C7.22435 6.19102 6.76602 6.19102 6.48268 6.47518C6.19935 6.75852 6.19935 7.22518 6.48268 7.50768L7.96602 8.99185L6.48268 10.4668C6.19935 10.7585 6.19935 11.2168 6.48268 11.4993C6.62435 11.641 6.81602 11.7168 6.99935 11.7168C7.19102 11.7168 7.37435 11.641 7.51602 11.4993L8.99935 10.0252L10.4827 11.4993C10.6243 11.6502 10.8077 11.7168 10.991 11.7168C11.1827 11.7168 11.366 11.641 11.5077 11.4993Z" fill="#A2AEBD"/>
</svg>
