<svg width="32" height="32" viewBox="0 0 32 32" fill="none" xmlns="http://www.w3.org/2000/svg">
<path fill-rule="evenodd" clip-rule="evenodd" d="M10.2209 29.3327H21.7764C26.2968 29.3327 29.3327 26.1619 29.3327 21.4437V10.555C29.3327 5.83683 26.2968 2.66602 21.7778 2.66602H10.2209C5.70188 2.66602 2.66602 5.83683 2.66602 10.555V21.4437C2.66602 26.1619 5.70188 29.3327 10.2209 29.3327ZM11.3312 14.666C9.49297 14.666 7.99935 13.1704 7.99935 11.3327C7.99935 9.49499 9.49297 7.99935 11.3312 7.99935C13.168 7.99935 14.663 9.49499 14.663 11.3327C14.663 13.1704 13.168 14.666 11.3312 14.666ZM26.4271 19.9113C26.8736 21.0561 26.6416 22.4321 26.1643 23.5659C25.5985 24.9144 24.5152 25.9354 23.1503 26.3812C22.5442 26.5793 21.9087 26.666 21.2745 26.666H10.0375C8.91934 26.666 7.92985 26.3977 7.11869 25.8982C6.61054 25.5845 6.5207 24.8607 6.89746 24.3915C7.52762 23.6072 8.14974 22.8201 8.77722 22.0262C9.97318 20.5071 10.779 20.0668 11.6746 20.4534C12.038 20.613 12.4027 20.8525 12.7781 21.1056C13.7783 21.7854 15.1687 22.7197 17.0002 21.7056C18.2535 21.0036 18.9804 19.7995 19.6135 18.751L19.624 18.7334C19.6689 18.6599 19.7134 18.5863 19.7577 18.513L19.7577 18.5129C19.9704 18.1609 20.1803 17.8136 20.4178 17.4937C20.7154 17.0933 21.8189 15.8411 23.2481 16.7328C24.1585 17.2942 24.9241 18.0537 25.7433 18.8669C26.0557 19.1779 26.2783 19.5315 26.4271 19.9113Z" fill="#7966FF"/>
</svg>
