<svg width="28" height="28" viewBox="0 0 28 28" fill="none" xmlns="http://www.w3.org/2000/svg">
<path d="M14 28C21.732 28 28 21.732 28 14C28 6.26801 21.732 0 14 0C6.26801 0 0 6.26801 0 14C0 21.732 6.26801 28 14 28Z" fill="white"/>
<path d="M27.5 14C27.5 21.4558 21.4558 27.5 14 27.5C6.54416 27.5 0.5 21.4558 0.5 14C0.5 6.54416 6.54416 0.5 14 0.5C21.4558 0.5 27.5 6.54416 27.5 14Z" stroke="#EA5455" stroke-opacity="0.2"/>
<path fill-rule="evenodd" clip-rule="evenodd" d="M18.472 11.8649C18.472 12.7022 18.6933 13.1957 19.1803 13.7644C19.5494 14.1834 19.6673 14.7212 19.6673 15.3047C19.6673 15.8875 19.4758 16.4407 19.0922 16.8899C18.59 17.4284 17.8817 17.7722 17.1588 17.832C16.1113 17.9213 15.0631 17.9965 14.001 17.9965C12.9382 17.9965 11.8907 17.9515 10.8432 17.832C10.1196 17.7722 9.41133 17.4284 8.90976 16.8899C8.52613 16.4407 8.33398 15.8875 8.33398 15.3047C8.33398 14.7212 8.45259 14.1834 8.82098 13.7644C9.32321 13.1957 9.52993 12.7022 9.52993 11.8649V11.5809C9.52993 10.4595 9.80954 9.72633 10.3853 9.00856C11.2414 7.96178 12.6136 7.33398 13.9712 7.33398H14.0308C15.4176 7.33398 16.8342 7.992 17.6756 9.08376C18.2216 9.78676 18.472 10.4891 18.472 11.5809V11.8649ZM12.0498 19.3745C12.0498 19.0388 12.3579 18.8851 12.6428 18.8193C12.976 18.7488 15.0068 18.7488 15.3401 18.8193C15.625 18.8851 15.9331 19.0388 15.9331 19.3745C15.9166 19.6941 15.729 19.9775 15.47 20.1574C15.1341 20.4193 14.7398 20.5852 14.3277 20.6449C14.0998 20.6745 13.8758 20.6751 13.6558 20.6449C13.2431 20.5852 12.8488 20.4193 12.5136 20.1568C12.2538 19.9775 12.0663 19.6941 12.0498 19.3745Z" fill="#EA5455"/>
</svg>
