<svg width="16" height="17" viewBox="0 0 16 17" fill="none" xmlns="http://www.w3.org/2000/svg">
<path fill-rule="evenodd" clip-rule="evenodd" d="M12.6016 4.73691V6.01469C14.0369 6.4627 15.0827 7.76201 15.0827 9.3139V13.428C15.0827 15.3492 13.4899 16.9069 11.5262 16.9069H4.47335C2.50881 16.9069 0.916016 15.3492 0.916016 13.428V9.3139C0.916016 7.76201 1.96264 6.4627 3.39709 6.01469V4.73691C3.40556 2.25256 5.46324 0.240234 7.98665 0.240234C10.5439 0.240234 12.6016 2.25256 12.6016 4.73691ZM8.00358 1.68944C9.72255 1.68944 11.1197 3.05583 11.1197 4.73691V5.83499H4.87896V4.72034C4.88742 3.04755 6.28462 1.68944 8.00358 1.68944ZM8.74028 12.286C8.74028 12.6918 8.41004 13.0148 7.99511 13.0148C7.58866 13.0148 7.25841 12.6918 7.25841 12.286V10.4476C7.25841 10.0501 7.58866 9.72713 7.99511 9.72713C8.41004 9.72713 8.74028 10.0501 8.74028 10.4476V12.286Z" fill="#A2AEBD"/>
</svg>
