<svg width="24" height="24" viewBox="0 0 24 24" fill="none" xmlns="http://www.w3.org/2000/svg">
<path fill-rule="evenodd" clip-rule="evenodd" d="M1.94 5H18.06C18.5791 5 19 5.42085 19 5.94V6.06C19 6.57915 18.5791 7 18.06 7H1.94C1.42085 7 1 6.57915 1 6.06V5.94C1 5.42085 1.42085 5 1.94 5ZM21.9956 11C21.7332 10.9982 21.4802 11.0897 21.2901 11.2551H21.2915C21.2819 11.2636 21.2729 11.2727 21.2645 11.2822L16.5781 16.7397L13.7525 14.1583C13.6598 14.0674 13.5481 13.9945 13.4239 13.944C13.2998 13.8934 13.1658 13.8662 13.0299 13.8641C12.894 13.8619 12.759 13.8847 12.633 13.9312C12.507 13.9778 12.3925 14.047 12.2964 14.1348C12.2003 14.2227 12.1246 14.3273 12.0737 14.4425C12.0228 14.5577 11.9978 14.681 12.0002 14.8052C12.0026 14.9294 12.0323 15.0519 12.0876 15.1654C12.1429 15.2788 12.2227 15.381 12.3221 15.4656L15.8926 18.729C15.9888 18.817 16.1034 18.8863 16.2296 18.9328C16.3558 18.9793 16.4909 19.0021 16.627 18.9998C16.763 18.9975 16.8972 18.9702 17.0214 18.9194C17.1456 18.8686 17.2573 18.7955 17.3499 18.7044L22.734 12.5501C22.9113 12.3732 23.0066 12.1403 22.9996 11.9005C22.9927 11.6608 22.8841 11.4328 22.6968 11.2648C22.5095 11.0968 22.2581 11.0018 21.9956 11ZM9.06 11H1.94C1.42085 11 1 11.4209 1 11.94V12.06C1 12.5791 1.42085 13 1.94 13H9.06C9.57915 13 10 12.5791 10 12.06V11.94C10 11.4209 9.57915 11 9.06 11ZM1.94 17H9.06C9.57915 17 10 17.4209 10 17.94V18.06C10 18.5791 9.57915 19 9.06 19H1.94C1.42085 19 1 18.5791 1 18.06V17.94C1 17.4209 1.42085 17 1.94 17Z" fill="#A2AEBD"/>
</svg>
