<svg fill="none" height="20" viewBox="0 0 21 20" width="21" xmlns="http://www.w3.org/2000/svg">
    <path clip-rule="evenodd" d="M6.17 0H14.84C18.23 0 20.5 2.38 20.5 5.92V14.091C20.5 17.621 18.23 20 14.84 20H6.17C2.78 20 0.5 17.621 0.5 14.091V5.92C0.5 2.38 2.78 0 6.17 0ZM13.51 13C13.85 12.661 13.85 12.111 13.51 11.771L11.73 9.991L13.51 8.21C13.85 7.871 13.85 7.311 13.51 6.971C13.17 6.63 12.62 6.63 12.27 6.971L10.5 8.75L8.72 6.971C8.37 6.63 7.82 6.63 7.48 6.971C7.14 7.311 7.14 7.871 7.48 8.21L9.26 9.991L7.48 11.761C7.14 12.111 7.14 12.661 7.48 13C7.65 13.17 7.88 13.261 8.1 13.261C8.33 13.261 8.55 13.17 8.72 13L10.5 11.231L12.28 13C12.45 13.181 12.67 13.261 12.89 13.261C13.12 13.261 13.34 13.17 13.51 13Z"
        fill="#EA5455"
        fill-rule="evenodd" />
</svg>
