<svg width="20" height="21" viewBox="0 0 20 21" fill="none" xmlns="http://www.w3.org/2000/svg">
<path fill-rule="evenodd" clip-rule="evenodd" d="M8.16874 13.284C8.68914 13.6368 9.32337 13.8501 9.99825 13.8501C11.7871 13.8501 13.2426 12.3816 13.2426 10.5766C13.2426 9.89569 13.0312 9.25576 12.6815 8.73069L11.7952 9.62495C11.9416 9.9039 12.0229 10.2321 12.0229 10.5766C12.0229 11.7006 11.1122 12.6195 9.99825 12.6195C9.65674 12.6195 9.3315 12.5375 9.05504 12.3898L8.16874 13.284ZM15.3567 6.0315C16.5357 7.11446 17.5358 8.57481 18.2839 10.3305C18.3489 10.4864 18.3489 10.6669 18.2839 10.8146C16.5438 14.9003 13.4459 17.3451 9.99825 17.3451H9.99012C8.42081 17.3451 6.91654 16.8283 5.59117 15.8848L4.01372 17.4764C3.89176 17.5995 3.73726 17.6569 3.58277 17.6569C3.42828 17.6569 3.26566 17.5995 3.15182 17.4764C2.94854 17.2713 2.91602 16.9431 3.07864 16.7052L3.10303 16.6724L15.129 4.53833L15.129 4.53832C15.1453 4.52191 15.1615 4.50551 15.1697 4.4891L15.1697 4.48909C15.1859 4.47269 15.2022 4.45628 15.2103 4.43987L15.9746 3.66868C16.2186 3.43075 16.6007 3.43075 16.8366 3.66868C17.0805 3.9066 17.0805 4.3004 16.8366 4.53833L15.3567 6.0315ZM6.74799 10.5798C6.74799 10.7932 6.77238 11.0065 6.8049 11.2034L3.79638 14.2389C2.98326 13.2872 2.27585 12.1386 1.7148 10.8178C1.64975 10.6701 1.64975 10.4896 1.7148 10.3337C3.45487 6.24801 6.55284 3.81135 9.99232 3.81135H10.0004C11.1632 3.81135 12.2934 4.09029 13.3342 4.61536L10.6184 7.35558C10.4233 7.32276 10.2119 7.29815 10.0004 7.29815C8.20346 7.29815 6.74799 8.76671 6.74799 10.5798Z" fill="#A2AEBD"/>
</svg>
